# xmcd
#
# Track frame offsets:
# 225
# 17704
# 40634
# 56909
# 75759
# 96937
# 117860
# 140289
# 165709
# 191667
# 209857
# 232629
# 249593
# 277927
#
# Disc length: 3978 seconds
#
#
# Revision: 0
# Processed by: cddbd v1.5.1PL0 Copyright (c) Steve Scherf et al.
# Submitted via: FreeRIP 2.942 
#
DISCID=b50f870e
DTITLE=Various Artist - Natural Chillout - Organic Sounds [CD3)
DYEAR=2004
DGENRE=Electronic
TTITLE0=Ive Mendes - If you leave me now
TTITLE1=Tim Hutton - Colours
TTITLE2=Madrid de los Asturias - Sports Carabet
TTITLE3=Charles Schillings and Pompon F. - Tengo nada
TTITLE4=Bebel Gilberto - Bananeira
TTITLE5=Suba - Felicidade
TTITLE6=Jazzanova - Fedime's time
TTITLE7=The Funky Lowlives - Saturn return
TTITLE8=Gotan Project - Last tango in Paris
TTITLE9=Zuco 103 - Outro lado
TTITLE10=Butti49 - Brazilikum
TTITLE11=Wagon Cookin - Mar
TTITLE12=Rhinocerose - Mes vacances a Rio
TTITLE13=Andy Votel - Questions and sight
EXTD=
EXTT0=
EXTT1=
EXTT2=
EXTT3=
EXTT4=
EXTT5=
EXTT6=
EXTT7=
EXTT8=
EXTT9=
EXTT10=
EXTT11=
EXTT12=
EXTT13=
PLAYORDER=
